{
  "accessors": [
    {
      "bufferView": 2,
      "componentType": 5126,
      "count": 6,
      "max": [
        0.40196600556373596,
        0.07162199914455414,
        0.09175299853086472
      ],
      "min": [
        -0.44602298736572266,
        -0.31810298562049866,
        -0.0033209999091923237
      ],
      "type": "VEC3"
    },
    {
      "bufferView": 1,
      "componentType": 5126,
      "count": 6,
      "max": [
        0.0,
        0.0
      ],
      "min": [
        0.0,
        0.0
      ],
      "type": "VEC2"
    },
    {
      "bufferView": 0,
      "componentType": 5125,
      "count": 6,
      "type": "SCALAR"
    },
    {
      "bufferView": 2,
      "byteOffset": 72,
      "componentType": 5126,
      "count": 65534,
      "max": [
        0.5589010119438171,
        0.6411280035972595,
        0.6739649772644043
      ],
      "min": [
        -0.5354599952697754,
        -0.5865150094032288,
        -0.008999999612569809
      ],
      "type": "VEC3"
    },
    {
      "bufferView": 2,
      "byteOffset": 786480,
      "componentType": 5126,
      "count": 65534,
      "max": [
        0.9999064207077026,
        0.9999409914016724,
        0.999906063079834
      ],
      "min": [
        -0.9999285936355591,
        -0.9989942908287048,
        -0.999818742275238
      ],
      "type": "VEC3"
    },
    {
      "bufferView": 1,
      "byteOffset": 48,
      "componentType": 5126,
      "count": 65534,
      "max": [
        0.9993829727172852,
        0.9993789792060852
      ],
      "min": [
        0.0,
        0.0
      ],
      "type": "VEC2"
    },
    {
      "bufferView": 0,
      "byteOffset": 24,
      "componentType": 5125,
      "count": 65538,
      "type": "SCALAR"
    },
    {
      "bufferView": 2,
      "byteOffset": 1572888,
      "componentType": 5126,
      "count": 65534,
      "max": [
        0.5396090149879456,
        0.6536409854888916,
        0.6739649772644043
      ],
      "min": [
        -0.5445770025253296,
        -0.5779250264167786,
        -0.007834999822080135
      ],
      "type": "VEC3"
    },
    {
      "bufferView": 2,
      "byteOffset": 2359296,
      "componentType": 5126,
      "count": 65534,
      "max": [
        0.999961256980896,
        0.9991196990013123,
        0.9995308518409729
      ],
      "min": [
        -0.9999731779098511,
        -0.9978645443916321,
        -0.983181357383728
      ],
      "type": "VEC3"
    },
    {
      "bufferView": 1,
      "byteOffset": 524320,
      "componentType": 5126,
      "count": 65534,
      "max": [
        0.9993090033531189,
        0.9649360179901123
      ],
      "min": [
        0.13318000733852386,
        0.0006350000039674342
      ],
      "type": "VEC2"
    },
    {
      "bufferView": 0,
      "byteOffset": 262176,
      "componentType": 5125,
      "count": 65550,
      "type": "SCALAR"
    },
    {
      "bufferView": 2,
      "byteOffset": 3145704,
      "componentType": 5126,
      "count": 65533,
      "max": [
        0.6194279789924622,
        0.6825820207595825,
        0.6397010087966919
      ],
      "min": [
        -0.5325449705123901,
        -0.5565969944000244,
        -0.02314699999988079
      ],
      "type": "VEC3"
    },
    {
      "bufferView": 2,
      "byteOffset": 3932100,
      "componentType": 5126,
      "count": 65533,
      "max": [
        0.9997854828834534,
        0.9997531771659851,
        0.9985347390174866
      ],
      "min": [
        -0.9999687671661377,
        -0.998127818107605,
        -0.971865713596344
      ],
      "type": "VEC3"
    },
    {
      "bufferView": 1,
      "byteOffset": 1048592,
      "componentType": 5126,
      "count": 65533,
      "max": [
        0.9951500296592712,
        0.9930480122566223
      ],
      "min": [
        0.056279998272657394,
        0.0015620000194758177
      ],
      "type": "VEC2"
    },
    {
      "bufferView": 0,
      "byteOffset": 524376,
      "componentType": 5125,
      "count": 65550,
      "type": "SCALAR"
    },
    {
      "bufferView": 2,
      "byteOffset": 4718496,
      "componentType": 5126,
      "count": 65534,
      "max": [
        0.6194279789924622,
        0.682233989238739,
        0.6729180216789246
      ],
      "min": [
        -0.5482770204544067,
        -0.5475810170173645,
        -0.00700599979609251
      ],
      "type": "VEC3"
    },
    {
      "bufferView": 2,
      "byteOffset": 5504904,
      "componentType": 5126,
      "count": 65534,
      "max": [
        0.9999703168869019,
        0.9999964237213135,
        0.9994910359382629
      ],
      "min": [
        -0.9999595880508423,
        -0.9984652400016785,
        -0.9804389476776123
      ],
      "type": "VEC3"
    },
    {
      "bufferView": 1,
      "byteOffset": 1572856,
      "componentType": 5126,
      "count": 65534,
      "max": [
        0.8506259918212891,
        0.9192190170288086
      ],
      "min": [
        0.1192530021071434,
        0.0016789999790489674
      ],
      "type": "VEC2"
    },
    {
      "bufferView": 0,
      "byteOffset": 786576,
      "componentType": 5125,
      "count": 65556,
      "type": "SCALAR"
    },
    {
      "bufferView": 2,
      "byteOffset": 6291312,
      "componentType": 5126,
      "count": 52139,
      "max": [
        0.5266910195350647,
        0.6328549981117249,
        0.6486600041389465
      ],
      "min": [
        -0.549813985824585,
        -0.5866649746894836,
        0.00850600004196167
      ],
      "type": "VEC3"
    },
    {
      "bufferView": 2,
      "byteOffset": 6916980,
      "componentType": 5126,
      "count": 52139,
      "max": [
        0.9999902248382568,
        0.9994014501571655,
        0.9977303147315979
      ],
      "min": [
        -0.9999831914901733,
        -0.9945946335792542,
        -0.9833751320838928
      ],
      "type": "VEC3"
    },
    {
      "bufferView": 1,
      "byteOffset": 2097128,
      "componentType": 5126,
      "count": 52139,
      "max": [
        0.9955530166625977,
        0.9082959890365601
      ],
      "min": [
        0.09471099823713303,
        0.0006290000164881349
      ],
      "type": "VEC2"
    },
    {
      "bufferView": 0,
      "byteOffset": 1048800,
      "componentType": 5125,
      "count": 52149,
      "type": "SCALAR"
    }
  ],
  "asset": {
    "extras": {
      "author": "Nate Loper   🗺️ ⛏🏺  #ArizonaGuide (https://sketchfab.com/arizonaguide)",
      "license": "CC-BY-4.0 (http://creativecommons.org/licenses/by/4.0/)",
      "source": "https://sketchfab.com/3d-models/matterhorn-mountain-in-the-alps-10ede47fe61440999f33d3811459f73e",
      "title": "Matterhorn Mountain in the Alps"
    },
    "generator": "Sketchfab-14.77.0",
    "version": "2.0"
  },
  "bufferViews": [
    {
      "buffer": 0,
      "byteLength": 1257396,
      "name": "floatBufferViews",
      "target": 34963
    },
    {
      "buffer": 0,
      "byteLength": 2514240,
      "byteOffset": 1257396,
      "byteStride": 8,
      "name": "floatBufferViews",
      "target": 34962
    },
    {
      "buffer": 0,
      "byteLength": 7542648,
      "byteOffset": 3771636,
      "byteStride": 12,
      "name": "floatBufferViews",
      "target": 34962
    }
  ],
  "buffers": [
    {
      "byteLength": 11314284,
      "uri": "scene.bin"
    }
  ],
  "images": [
    {
      "uri": "textures/TextureAtlas_1001_baseColor.png"
    }
  ],
  "materials": [
    {
      "doubleSided": true,
      "name": "TextureAtlas_1001",
      "pbrMetallicRoughness": {
        "baseColorTexture": {
          "index": 0
        },
        "metallicFactor": 0.0
      }
    }
  ],
  "meshes": [
    {
      "name": "Object_0",
      "primitives": [
        {
          "attributes": {
            "POSITION": 0,
            "TEXCOORD_0": 1
          },
          "indices": 2,
          "material": 0,
          "mode": 1
        }
      ]
    },
    {
      "name": "Object_1",
      "primitives": [
        {
          "attributes": {
            "NORMAL": 4,
            "POSITION": 3,
            "TEXCOORD_0": 5
          },
          "indices": 6,
          "material": 0,
          "mode": 4
        }
      ]
    },
    {
      "name": "Object_2",
      "primitives": [
        {
          "attributes": {
            "NORMAL": 8,
            "POSITION": 7,
            "TEXCOORD_0": 9
          },
          "indices": 10,
          "material": 0,
          "mode": 4
        }
      ]
    },
    {
      "name": "Object_3",
      "primitives": [
        {
          "attributes": {
            "NORMAL": 12,
            "POSITION": 11,
            "TEXCOORD_0": 13
          },
          "indices": 14,
          "material": 0,
          "mode": 4
        }
      ]
    },
    {
      "name": "Object_4",
      "primitives": [
        {
          "attributes": {
            "NORMAL": 16,
            "POSITION": 15,
            "TEXCOORD_0": 17
          },
          "indices": 18,
          "material": 0,
          "mode": 4
        }
      ]
    },
    {
      "name": "Object_5",
      "primitives": [
        {
          "attributes": {
            "NORMAL": 20,
            "POSITION": 19,
            "TEXCOORD_0": 21
          },
          "indices": 22,
          "material": 0,
          "mode": 4
        }
      ]
    }
  ],
  "nodes": [
    {
      "children": [
        1
      ],
      "matrix": [
        1.0,
        0.0,
        0.0,
        0.0,
        0.0,
        2.220446049250313e-16,
        -1.0,
        0.0,
        0.0,
        1.0,
        2.220446049250313e-16,
        0.0,
        0.0,
        0.0,
        0.0,
        1.0
      ],
      "name": "Sketchfab_model"
    },
    {
      "children": [
        2,
        3,
        4,
        5,
        6,
        7
      ],
      "name": "Matterhorn.obj.cleaner.materialmerger.gles"
    },
    {
      "mesh": 0,
      "name": "Object_2"
    },
    {
      "mesh": 1,
      "name": "Object_3"
    },
    {
      "mesh": 2,
      "name": "Object_4"
    },
    {
      "mesh": 3,
      "name": "Object_5"
    },
    {
      "mesh": 4,
      "name": "Object_6"
    },
    {
      "mesh": 5,
      "name": "Object_7"
    }
  ],
  "samplers": [
    {
      "magFilter": 9729,
      "minFilter": 9987,
      "wrapS": 10497,
      "wrapT": 10497
    }
  ],
  "scene": 0,
  "scenes": [
    {
      "name": "Sketchfab_Scene",
      "nodes": [
        0
      ]
    }
  ],
  "textures": [
    {
      "sampler": 0,
      "source": 0
    }
  ]
}
